<?xml version="1.0" standalone="no"?>
<!DOCTYPE svg PUBLIC "-//W3C//DTD SVG 20010904//EN"
 "http://www.w3.org/TR/2001/REC-SVG-20010904/DTD/svg10.dtd">
<svg version="1.0" xmlns="http://www.w3.org/2000/svg"
 width="1280.000000pt" height="1280.000000pt" viewBox="0 0 1280.000000 1280.000000"
 preserveAspectRatio="xMidYMid meet">
<metadata>
Created by potrace 1.15, written by Peter Selinger 2001-2017
</metadata>
<g transform="translate(0.000000,1280.000000) scale(0.100000,-0.100000)"
fill="#ffffff" stroke="none">
<path d="M6150 12380 c-610 -48 -1236 -269 -1808 -638 -202 -129 -428 -288
-617 -430 -1039 -785 -1790 -2111 -2014 -3557 -56 -360 -74 -606 -74 -1030 1
-434 18 -662 79 -1058 186 -1206 706 -2309 1472 -3126 303 -323 574 -533 1207
-936 753 -479 1609 -694 2411 -605 931 103 1719 494 2429 1205 620 620 1065
1362 1370 2280 233 703 335 1348 335 2130 0 1069 -193 2014 -595 2910 -430
959 -1095 1748 -1895 2247 -508 317 -1094 526 -1665 593 -164 19 -485 26 -635
15z m150 -1050 c648 -50 1296 -301 1815 -704 136 -105 198 -159 335 -291 263
-254 461 -501 662 -825 392 -630 664 -1471 738 -2275 6 -66 13 -138 15 -160 3
-22 8 -173 12 -336 6 -302 -2 -505 -33 -774 -97 -860 -420 -1720 -897 -2394
-169 -238 -441 -538 -667 -735 -604 -528 -1279 -803 -2040 -832 -382 -14 -736
47 -1135 194 -131 49 -168 68 -286 148 -583 394 -1046 947 -1418 1693 -322
642 -514 1339 -588 2121 -24 263 -24 893 0 1145 36 364 109 759 196 1065 317
1104 948 2056 1725 2599 108 76 187 116 352 179 278 106 483 151 844 185 77 8
252 6 370 -3z"/>
<path d="M7095 10634 c-11 -2 -45 -9 -75 -15 -54 -11 -476 -174 -595 -230
-176 -83 -335 -253 -414 -443 -59 -143 -75 -231 -76 -426 0 -111 5 -201 14
-245 70 -354 291 -666 558 -787 188 -85 387 -77 898 37 197 44 331 127 450
277 153 193 219 401 218 688 0 235 -48 433 -154 630 -173 321 -424 503 -709
515 -52 2 -104 2 -115 -1z"/>
<path d="M5395 7944 c-109 -19 -203 -38 -208 -43 -7 -7 -11 -790 -4 -797 2 -2
151 -6 332 -9 182 -4 353 -8 380 -9 l50 -3 0 -1499 0 -1499 -425 -42 c-234
-23 -426 -42 -427 -42 -2 -1 -3 -179 -3 -396 l0 -395 23 -14 c28 -19 370 -160
419 -174 38 -11 72 -6 1828 233 305 41 722 98 925 125 204 28 385 53 403 56
l32 6 0 365 0 364 -32 14 c-51 20 -498 108 -545 107 l-43 -2 0 1775 0 1775
-22 4 c-13 3 -239 17 -503 31 -264 14 -806 43 -1204 65 -398 22 -735 40 -750
39 -14 -1 -116 -16 -226 -35z"/>
</g>
</svg>
